<?xml version="1.0" encoding="utf-8"?>
<!-- Generator: Adobe Illustrator 19.2.0, SVG Export Plug-In . SVG Version: 6.00 Build 0)  -->
<svg version="1.1" id="Layer_1" xmlns="http://www.w3.org/2000/svg" xmlns:xlink="http://www.w3.org/1999/xlink" x="0px" y="0px"
	 viewBox="0 0 33.1 33" style="enable-background:new 0 0 33.1 33;" xml:space="preserve">
<style type="text/css">
	.st0{fill:none;stroke:#000000;stroke-width:2;stroke-miterlimit:10;}
</style>
<path xmlns="http://www.w3.org/2000/svg" d="M740.2,208l11.05-11a2.41,2.41,0,0,0,.54-2.56,3.33,3.33,0,0,0-.84-1.31,3.16,3.16,0,0,0-2.21-1h0a2.37,2.37,0,0,0-1.67.68l-11.08,11-11-11.08a2.32,2.32,0,0,0-1.64-.68h0a3.16,3.16,0,0,0-2.22,1l-0.08.07a2.66,2.66,0,0,0-.25,3.84l11,11.06-11.07,11a2.76,2.76,0,0,0,.33,3.89,3.24,3.24,0,0,0,2.18,1.07h0a2.35,2.35,0,0,0,1.66-.68L736,212.23l11,11.08a2.4,2.4,0,0,0,1.68.68h0a3.23,3.23,0,0,0,2.24-1h0a2.76,2.76,0,0,0,.29-3.89Z" transform="translate(-720 -192)" fill="#f44336"/>
</svg>
