<svg id="icons" xmlns="http://www.w3.org/2000/svg" viewBox="0 0 21 21"><defs><style>.cls-1{opacity:0;}.cls-2{fill:#f69f1a;}</style></defs><title>ico</title><g id="ico_info-questionmark-amber"><rect class="cls-1" width="21" height="21"/><path class="cls-2" d="M10.5,1.5a9,9,0,1,1-9,9,9,9,0,0,1,9-9m0-1a10,10,0,1,0,10,10,10,10,0,0,0-10-10Z"/><path class="cls-2" d="M10.94,13.7H9.11V12.21a2.11,2.11,0,0,1,.59-1.41l.7-.78A3.9,3.9,0,0,0,11.63,7.7a1.6,1.6,0,0,0-.06-.42,2.27,2.27,0,0,0-.22-.5,1.2,1.2,0,0,0-.59-.48,2.65,2.65,0,0,0-1-.18,8.91,8.91,0,0,0-2.13.38V4.83a10.62,10.62,0,0,1,2.7-.32,5.51,5.51,0,0,1,1.83.29,3.13,3.13,0,0,1,1.4,1,2.61,2.61,0,0,1,.58,1.72A2.66,2.66,0,0,1,13.64,9a6.14,6.14,0,0,1-.83,1l-.91.82a4.56,4.56,0,0,0-.79.84,1.33,1.33,0,0,0-.17.7ZM9.07,17V15.08H11V17Z"/></g></svg>