<svg id="icons" xmlns="http://www.w3.org/2000/svg" viewBox="0 0 24 24"><title>ico-refresh_big_amber</title><g id="ico-refresh-big-amber"><rect width="24" height="24" opacity="0"/><path d="M22.72,18.24l-1.17-4.39a.5.5,0,0,0-.61-.35h0l-4.5,1.28a.5.5,0,0,0,.27,1l3.15-.89A9,9,0,0,1,2.62,13h-1a10,10,0,0,0,19.15,2.23l.12.08.83,3.19a.52.52,0,1,0,1-.26Z" fill="#f69f1a"/><path d="M2.3,9.5h0l4.5-1.28a.5.5,0,0,0-.27-1L3.4,8.15A9,9,0,0,1,20.68,10.5h1A10,10,0,0,0,2.47,7.77l-.13-.08L1.52,4.5a.52.52,0,1,0-1,.26L1.69,9.15A.5.5,0,0,0,2.3,9.5Z" fill="#f69f1a"/></g></svg>