<svg id="icons" xmlns="http://www.w3.org/2000/svg" viewBox="0 0 24 24"><title>ico-filter-amber</title><g id="ico-filter-amber"><rect width="24" height="24" opacity="0"/><path d="M19.33,3H4.67a1,1,0,0,0-.81,1.43l5.87,8.11a.94.94,0,0,0,.28.28v7.46a1.06,1.06,0,0,0,1.54,1l1.88-.94a1.06,1.06,0,0,0,.59-1V12.83a.94.94,0,0,0,.28-.28l5.87-8.11A1,1,0,0,0,19.33,3ZM7.67,8,4.78,4H19.22L16.33,8Zm2.89,4h0l0,0L8.4,9H15.6l-2.14,3,0,0H10.57Zm.5,8.34a.07.07,0,0,1-.06-.06V13h2v6.34a.06.06,0,0,1,0,.06l-1.9.95Z" fill="#f69f1a"/></g></svg>