<?xml version="1.0" encoding="utf-8"?>
<!-- Generator: Adobe Illustrator 21.0.2, SVG Export Plug-In . SVG Version: 6.00 Build 0)  -->
<svg version="1.1" id="Layer_1" xmlns="http://www.w3.org/2000/svg" xmlns:xlink="http://www.w3.org/1999/xlink" x="0px" y="0px"
	 viewBox="-3 -10 31 31" style="enable-background:new 0 0 25 21;" xml:space="preserve">
<style type="text/css">
	.st0{fill:#98A2AD;}
	.st1{fill:#F69F1A;}
</style>
<path
  class="st1"
  d="M21.6,1C22.9,1,24,2,24,3.3v9.3c0,1.3-1.5,2.3-2.8,2.3H8.4H8l-0.3,0.3L4,18.7V16v-1H3c-1.4,0-2-1.2-2-2.3V3.3
	C1,2,2.1,1,3.4,1H21.6 M21.6,0H3.4C1.5,0,0,1.5,0,3.3v9.3C0,14.5,1.2,16,3,16v5l5.4-5h12.7c1.9,0,3.8-1.5,3.8-3.3V3.3
	C25,1.5,23.5,0,21.6,0L21.6,0z"
/>
</svg>
