<svg id="icons" xmlns="http://www.w3.org/2000/svg" viewBox="1 1 17 17">
    <title>ico-header-tabs-kunde</title>
    <g id="ico-header-tabs-kunde">
        <rect width="19" height="19" opacity="0"/>
        <path d="M9.5,2.5a7,7,0,0,0-7,7A6.86,6.86,0,0,0,4.15,14a1.94,1.94,0,0,0,.24.26,6.75,6.75,0,0,0,3.44,2h0a7,7,0,0,0,3.32,0h0a6.73,6.73,0,0,0,3.43-2,3.24,3.24,0,0,0,.26-.27A6.91,6.91,0,0,0,16.5,9.5,7,7,0,0,0,9.5,2.5Zm4.65,10.78h0a7,7,0,0,0-3.65-1.7v-.33A3.07,3.07,0,0,0,12,8.5a2.78,2.78,0,0,0-2.5-3A2.78,2.78,0,0,0,7,8.5a3.07,3.07,0,0,0,1.5,2.75v.33a7,7,0,0,0-3.64,1.7h0A5.9,5.9,0,0,1,3.5,9.5a6,6,0,0,1,12,0A5.93,5.93,0,0,1,14.15,13.28Z"
              fill="#98a2ad"/>
    </g>
</svg>
