<svg id="icons" xmlns="http://www.w3.org/2000/svg" viewBox="0 0 34 34"><defs><style>.cls-1{opacity:0;}.cls-2,.cls-3{fill:#f69f1a;}.cls-3{fill-rule:evenodd;}</style></defs><title>ico</title><g id="ico_header-phone-taping"><rect class="cls-1" width="34" height="34"/><path class="cls-2" d="M6.72,10.8a1.26,1.26,0,0,1,.89.42c.29.27,2.56,2.54,2.56,2.54a1.32,1.32,0,0,1,.44.89,1.32,1.32,0,0,1-.44.89S9.05,16.67,8.73,17l-.54.49.3.66a10.46,10.46,0,0,0,1.4,2.19A17,17,0,0,0,14,24c.16.1.88.46.88.46l.65.35,2-2a1.27,1.27,0,0,1,.89-.42,1.21,1.21,0,0,1,.87.43l2.57,2.56a1.23,1.23,0,0,1,.42.88,1.36,1.36,0,0,1-.43.91L20.3,28.75h0a2.54,2.54,0,0,1-1.87.74h-.23a10.42,10.42,0,0,1-3.74-1.11,21,21,0,0,1-7-5.43,19,19,0,0,1-3.4-5.62,7.13,7.13,0,0,1-.54-3,2.38,2.38,0,0,1,.73-1.54l1.58-1.58a1.34,1.34,0,0,1,.9-.41m0-1a2.3,2.3,0,0,0-1.59.68h0L3.53,12.08a3.38,3.38,0,0,0-1,2.16,8.07,8.07,0,0,0,.6,3.44,19.93,19.93,0,0,0,3.57,5.92A22,22,0,0,0,14,29.28a11.47,11.47,0,0,0,4.11,1.21h.29a3.53,3.53,0,0,0,2.7-1.15l0,0c.24-.29,1.22-1.23,1.43-1.44a2.3,2.3,0,0,0,.71-1.6,2.22,2.22,0,0,0-.72-1.59L20,22.14a2.19,2.19,0,0,0-1.58-.72,2.26,2.26,0,0,0-1.6.71l-1.48,1.46L15,23.41c-.17-.08-.33-.16-.46-.25a16,16,0,0,1-3.85-3.48,9.39,9.39,0,0,1-1.26-2c.38-.35.74-.71,1.08-1.06l.39-.39a2.12,2.12,0,0,0,0-3.21L9.16,11.34c-.28-.29-.57-.58-.88-.86A2.22,2.22,0,0,0,6.72,9.8Z"/><path class="cls-2" d="M21.34,18.22a6,6,0,0,1,4.9,4.86.63.63,0,0,0,.62.52H27a.63.63,0,0,0,.52-.72,7.14,7.14,0,0,0-2-3.87,7.23,7.23,0,0,0-3.9-2,.63.63,0,0,0-.73.51A.62.62,0,0,0,21.34,18.22Z"/><path class="cls-2" d="M31.5,22.68a11.74,11.74,0,0,0-3.33-6.38A11.9,11.9,0,0,0,21.73,13a.63.63,0,1,0-.21,1.23,10.65,10.65,0,0,1,5.75,3,10.48,10.48,0,0,1,3,5.7.63.63,0,0,0,.62.52H31A.62.62,0,0,0,31.5,22.68Z"/><path class="cls-3" d="M13.5,5.25A2.25,2.25,0,1,1,11.25,7.5,2.25,2.25,0,0,1,13.5,5.25Z"/><path class="cls-2" d="M17,9.65V5.27h2.17a2.07,2.07,0,0,1,.42.08,1.09,1.09,0,0,1-.13,2.12,1.06,1.06,0,0,1,.33.08.73.73,0,0,1,.21.13.58.58,0,0,1,.13.22,1.64,1.64,0,0,1,.07.25q0,.1,0,.32.08.65.13.85a1.11,1.11,0,0,0,.13.31h-1l-.06-.44-.1-.68a3.5,3.5,0,0,0-.07-.39A.3.3,0,0,0,19.12,8,.43.43,0,0,0,19,7.89H18V9.65ZM17.93,6V7.19h.76a.76.76,0,0,0,.48-.12.59.59,0,0,0,.24-.51.53.53,0,0,0-.23-.49A.45.45,0,0,0,18.95,6l-.39,0Z"/><path class="cls-2" d="M21.24,9.65V5.27h2.93V6h-2V7H24v.71H22.18V8.92h2.06v.73Z"/><path class="cls-2" d="M28.44,6.7h-1q-.09-.77-.71-.77a.79.79,0,0,0-.74.45,2.46,2.46,0,0,0-.24,1.18c0,.08,0,.15,0,.21s0,.16,0,.29a1.32,1.32,0,0,0,.08.35,2.28,2.28,0,0,0,.15.31.64.64,0,0,0,.26.25.81.81,0,0,0,.38.09.78.78,0,0,0,.55-.21.84.84,0,0,0,.24-.62h1c0,.13,0,.23,0,.31a1.54,1.54,0,0,1-.11.33,1.24,1.24,0,0,1-.25.38,1.7,1.7,0,0,1-1.28.49,2.2,2.2,0,0,1-.94-.19,1.54,1.54,0,0,1-.62-.51,2.25,2.25,0,0,1-.33-.7,3,3,0,0,1-.1-.8,2.48,2.48,0,0,1,.54-1.68,1.83,1.83,0,0,1,1.46-.63,1.7,1.7,0,0,1,1.17.4A1.34,1.34,0,0,1,28.44,6.7Z"/></g></svg>