<svg xmlns="http://www.w3.org/2000/svg" width="42.03" height="35" viewBox="0 0 42.03 35">
  <defs>
    <style>
      .cls-1 {
        fill-rule: evenodd;
        fill: #ff9900;
      }
    </style>
  </defs>
  <path id="warning" class="cls-1" d="M3134.82,24741.8l-20.11-33.3a0.756,0.756,0,0,0-1.44,0l-20.13,33.3a0.733,0.733,0,0,0,.72,1.2h40.24a0.732,0.732,0,0,0,.72-1.2m-22.95-23.1h3.95a0.316,0.316,0,0,1,.26.3l-0.7,13a0.262,0.262,0,0,1-.28.2h-2.24a0.27,0.27,0,0,1-.28-0.2l-0.98-13a0.316,0.316,0,0,1,.27-0.3m4.21,20a0.339,0.339,0,0,1-.26.3h-3.67a0.337,0.337,0,0,1-.27-0.3v-3.5a0.266,0.266,0,0,1,.27-0.3h3.67a0.264,0.264,0,0,1,.26.3v3.5Z" transform="translate(-3092.97 -24708)"/>
</svg>
